<svg width="90" height="120" viewBox="0 0 90 120" fill="none" xmlns="http://www.w3.org/2000/svg">
<rect x="3" y="3" width="84" height="114" stroke="black" stroke-width="6"/>
<g filter="url(#filter0_i_1_6)">
<path d="M41.409 27.0487H34.597L33.505 30.2727H28.851L35.455 12.0207H40.603L47.207 30.2727H42.501L41.409 27.0487ZM40.265 23.6167L38.003 16.9347L35.767 23.6167H40.265ZM56.0029 26.8407H61.8269V30.2727H51.5569V12.0207H56.0029V26.8407ZM44.9787 51.0207V69.2727H40.5327V58.3267L36.4507 69.2727H32.8627L28.7547 58.3007V69.2727H24.3087V51.0207H29.5607L34.6827 63.6567L39.7527 51.0207H44.9787ZM61.8779 66.0487H55.0659L53.9739 69.2727H49.3199L55.9239 51.0207H61.0719L67.6759 69.2727H62.9699L61.8779 66.0487ZM60.7339 62.6167L58.4719 55.9347L56.2359 62.6167H60.7339ZM38.7229 98.9127C39.7803 99.1381 40.6296 99.6667 41.271 100.499C41.9123 101.313 42.233 102.249 42.233 103.307C42.233 104.832 41.6956 106.045 40.6209 106.947C39.5636 107.831 38.0816 108.273 36.175 108.273H27.6729V90.0207H35.8889C37.7436 90.0207 39.1909 90.4454 40.2309 91.2947C41.2883 92.1441 41.8169 93.2967 41.8169 94.7527C41.8169 95.8274 41.5309 96.7201 40.9589 97.4307C40.4043 98.1414 39.6589 98.6354 38.7229 98.9127ZM32.1189 97.4047H35.031C35.7589 97.4047 36.3136 97.2487 36.6949 96.9367C37.0936 96.6074 37.2929 96.1307 37.2929 95.5067C37.2929 94.8827 37.0936 94.4061 36.6949 94.0767C36.3136 93.7474 35.7589 93.5827 35.031 93.5827H32.1189V97.4047ZM35.395 104.685C36.1403 104.685 36.7123 104.52 37.1109 104.191C37.5269 103.844 37.735 103.35 37.735 102.709C37.735 102.067 37.5183 101.565 37.0849 101.201C36.6689 100.837 36.0883 100.655 35.3429 100.655H32.1189V104.685H35.395ZM58.5136 105.049H51.7016L50.6096 108.273H45.9556L52.5596 90.0207H57.7076L64.3116 108.273H59.6056L58.5136 105.049ZM57.3696 101.617L55.1076 94.9347L52.8716 101.617H57.3696Z" fill="black"/>
</g>
<defs>
<filter id="filter0_i_1_6" x="24.3087" y="12.0207" width="43.3672" height="100.252" filterUnits="userSpaceOnUse" color-interpolation-filters="sRGB">
<feFlood flood-opacity="0" result="BackgroundImageFix"/>
<feBlend mode="normal" in="SourceGraphic" in2="BackgroundImageFix" result="shape"/>
<feColorMatrix in="SourceAlpha" type="matrix" values="0 0 0 0 0 0 0 0 0 0 0 0 0 0 0 0 0 0 127 0" result="hardAlpha"/>
<feOffset dy="4"/>
<feGaussianBlur stdDeviation="2"/>
<feComposite in2="hardAlpha" operator="arithmetic" k2="-1" k3="1"/>
<feColorMatrix type="matrix" values="0 0 0 0 0 0 0 0 0 0 0 0 0 0 0 0 0 0 0.25 0"/>
<feBlend mode="normal" in2="shape" result="effect1_innerShadow_1_6"/>
</filter>
</defs>
</svg>
