<svg width="153" height="53" viewBox="0 0 153 53" fill="none" xmlns="http://www.w3.org/2000/svg">
<rect x="3" y="3" width="147" height="47" stroke="white" stroke-width="6"/>
<g filter="url(#filter0_i_24_15)">
<path d="M28.8258 32.2215H22.0138L20.9218 35.4455H16.2678L22.8718 17.1935H28.0198L34.6238 35.4455H29.9178L28.8258 32.2215ZM27.6818 28.7895L25.4198 22.1075L23.1838 28.7895H27.6818ZM43.4197 32.0135H49.2437V35.4455H38.9737V17.1935H43.4197V32.0135ZM74.3743 17.1935V35.4455H69.9283V24.4995L65.8463 35.4455H62.2583L58.1503 24.4735V35.4455H53.7043V17.1935H58.9563L64.0783 29.8295L69.1483 17.1935H74.3743ZM91.2735 32.2215H84.4615L83.3695 35.4455H78.7155L85.3195 17.1935H90.4675L97.0715 35.4455H92.3655L91.2735 32.2215ZM90.1295 28.7895L87.8675 22.1075L85.6315 28.7895H90.1295ZM112.471 26.0855C113.529 26.3108 114.378 26.8395 115.019 27.6715C115.661 28.4861 115.981 29.4221 115.981 30.4795C115.981 32.0048 115.444 33.2181 114.369 34.1195C113.312 35.0035 111.83 35.4455 109.923 35.4455H101.421V17.1935H109.637C111.492 17.1935 112.939 17.6181 113.979 18.4675C115.037 19.3168 115.565 20.4695 115.565 21.9255C115.565 23.0001 115.279 23.8928 114.707 24.6035C114.153 25.3141 113.407 25.8081 112.471 26.0855ZM105.867 24.5775H108.779C109.507 24.5775 110.062 24.4215 110.443 24.1095C110.842 23.7801 111.041 23.3035 111.041 22.6795C111.041 22.0555 110.842 21.5788 110.443 21.2495C110.062 20.9201 109.507 20.7555 108.779 20.7555H105.867V24.5775ZM109.143 31.8575C109.889 31.8575 110.461 31.6928 110.859 31.3635C111.275 31.0168 111.483 30.5228 111.483 29.8815C111.483 29.2401 111.267 28.7375 110.833 28.3735C110.417 28.0095 109.837 27.8275 109.091 27.8275H105.867V31.8575H109.143ZM132.262 32.2215H125.45L124.358 35.4455H119.704L126.308 17.1935H131.456L138.06 35.4455H133.354L132.262 32.2215ZM131.118 28.7895L128.856 22.1075L126.62 28.7895H131.118Z" fill="white"/>
</g>
<defs>
<filter id="filter0_i_24_15" x="16.2678" y="17.1935" width="121.792" height="22.252" filterUnits="userSpaceOnUse" color-interpolation-filters="sRGB">
<feFlood flood-opacity="0" result="BackgroundImageFix"/>
<feBlend mode="normal" in="SourceGraphic" in2="BackgroundImageFix" result="shape"/>
<feColorMatrix in="SourceAlpha" type="matrix" values="0 0 0 0 0 0 0 0 0 0 0 0 0 0 0 0 0 0 127 0" result="hardAlpha"/>
<feOffset dy="4"/>
<feGaussianBlur stdDeviation="2"/>
<feComposite in2="hardAlpha" operator="arithmetic" k2="-1" k3="1"/>
<feColorMatrix type="matrix" values="0 0 0 0 0 0 0 0 0 0 0 0 0 0 0 0 0 0 0.25 0"/>
<feBlend mode="normal" in2="shape" result="effect1_innerShadow_24_15"/>
</filter>
</defs>
</svg>
