<svg width="60" height="60" viewBox="0 0 60 60" fill="none" xmlns="http://www.w3.org/2000/svg">
<path d="M6.135 19.8488C6.83823 19.1457 7.79188 18.7508 8.78625 18.7508C9.78061 18.7508 10.7343 19.1457 11.4375 19.8488L30 38.4113L48.5625 19.8488C49.2698 19.1657 50.217 18.7877 51.2003 18.7962C52.1835 18.8048 53.124 19.1992 53.8193 19.8944C54.5146 20.5897 54.909 21.5303 54.9175 22.5135C54.9261 23.4967 54.5481 24.444 53.865 25.1512L32.6512 46.365C31.948 47.068 30.9944 47.463 30 47.463C29.0056 47.463 28.052 47.068 27.3487 46.365L6.135 25.1512C5.43198 24.448 5.03705 23.4944 5.03705 22.5C5.03705 21.5056 5.43198 20.552 6.135 19.8488Z" fill="white"/>
</svg>
